<svg width="40" height="40" viewBox="0 0 40 40" fill="none" xmlns="http://www.w3.org/2000/svg">
<path d="M39.9996 37.6444L29.563 27.2078C32.274 23.8921 33.6069 19.6613 33.286 15.3904C32.9652 11.1195 31.015 7.13532 27.8389 4.26197C24.6629 1.38862 20.504 -0.154078 16.2224 -0.0470251C11.9408 0.0600279 7.86414 1.80864 4.83566 4.83712C1.80718 7.86561 0.0585631 11.9423 -0.0484899 16.2238C-0.155543 20.5054 1.38715 24.6644 4.2605 27.8404C7.13385 31.0165 11.118 32.9666 15.3889 33.2875C19.6598 33.6084 23.8906 32.2755 27.2063 29.5644L37.643 40.0011L39.9996 37.6444ZM16.6663 30.0011C14.0292 30.0011 11.4514 29.2191 9.2587 27.754C7.06604 26.2889 5.35708 24.2066 4.34791 21.7702C3.33874 19.3339 3.0747 16.653 3.58917 14.0666C4.10364 11.4801 5.37351 9.10438 7.23821 7.23968C9.10291 5.37498 11.4787 4.1051 14.0651 3.59063C16.6515 3.07616 19.3324 3.34021 21.7687 4.34937C24.2051 5.35854 26.2875 7.06751 27.7526 9.26016C29.2176 11.4528 29.9996 14.0307 29.9996 16.6678C29.9957 20.2028 28.5896 23.5918 26.09 26.0915C23.5904 28.5911 20.2013 29.9971 16.6663 30.0011Z" fill="#EF521F"/>
</svg>
