<svg width="24" height="24" viewBox="0 0 24 24" fill="none" xmlns="http://www.w3.org/2000/svg">
<path d="M13 5.74C12.9827 5.6746 12.9593 5.61098 12.93 5.55C12.93 5.55 12.93 5.55 12.93 5.49C12.93 5.43 12.87 5.43 12.85 5.4C12.8113 5.34311 12.7641 5.29252 12.71 5.25L12.56 5.14C12.5028 5.10747 12.4425 5.08068 12.38 5.06H12.18L12 5H11.93H11.74L11.55 5.07H11.49L6.72 8H5C4.20435 8 3.44129 8.31607 2.87868 8.87868C2.31607 9.44129 2 10.2044 2 11V13C2 13.7956 2.31607 14.5587 2.87868 15.1213C3.44129 15.6839 4.20435 16 5 16H6.72L11.49 18.86H11.55L11.74 18.93H11.93H12H12.11H12.31C12.3725 18.9093 12.4328 18.8825 12.49 18.85L12.64 18.74C12.6941 18.6975 12.7413 18.6469 12.78 18.59C12.78 18.59 12.84 18.54 12.86 18.5C12.88 18.46 12.86 18.5 12.86 18.44C12.8893 18.379 12.9127 18.3154 12.93 18.25C12.9347 18.1868 12.9347 18.1232 12.93 18.06L13 18V6C13 6 13 6 13 5.93C13.0047 5.86675 13.0047 5.80325 13 5.74ZM4 13V11C4 10.7348 4.10536 10.4804 4.29289 10.2929C4.48043 10.1054 4.73478 10 5 10H7.07H7.26L7.45 9.93H7.51L11 7.77V16.23L7.51 14.14H7.45L7.26 14.07H7.07H5C4.86257 14.0703 4.72655 14.0423 4.60043 13.9878C4.4743 13.9332 4.36078 13.8532 4.26695 13.7528C4.17311 13.6524 4.10098 13.5337 4.05505 13.4042C4.00912 13.2747 3.99038 13.1371 4 13ZM22 12C22.0163 14.3874 21.2389 16.7125 19.79 18.61C19.6269 18.8195 19.3872 18.9557 19.1237 18.9885C18.8603 19.0213 18.5945 18.9481 18.385 18.785C18.1755 18.6219 18.0393 18.3822 18.0065 18.1187C17.9737 17.8553 18.0469 17.5895 18.21 17.38C19.3893 15.8361 20.0193 13.9427 20 12C20.0194 10.0604 19.3893 8.17006 18.21 6.63C18.1286 6.52586 18.0686 6.40662 18.0336 6.27916C17.9985 6.15171 17.9891 6.01857 18.0059 5.88745C18.0226 5.75633 18.0652 5.62983 18.1311 5.51526C18.197 5.4007 18.285 5.30034 18.39 5.22C18.5997 5.05871 18.8648 4.98709 19.1272 5.02083C19.3896 5.05457 19.6279 5.19091 19.79 5.4C21.2389 7.29369 22.0164 9.61567 22 12ZM16.85 8.26C17.5938 9.36548 17.991 10.6676 17.991 12C17.991 13.3324 17.5938 14.6345 16.85 15.74C16.7867 15.8652 16.6978 15.9756 16.5891 16.0642C16.4803 16.1527 16.3542 16.2174 16.2188 16.254C16.0835 16.2907 15.9419 16.2984 15.8033 16.2768C15.6648 16.2552 15.5323 16.2046 15.4146 16.1285C15.2968 16.0523 15.1964 15.9522 15.1198 15.8348C15.0432 15.7173 14.9922 15.585 14.9701 15.4465C14.948 15.308 14.9552 15.1664 14.9914 15.0309C15.0276 14.8954 15.0918 14.769 15.18 14.66C15.6996 13.8688 15.984 12.9464 16 12C15.9869 11.0546 15.7061 10.1322 15.19 9.34C15.1018 9.23095 15.0376 9.10457 15.0014 8.96908C14.9652 8.83358 14.958 8.69199 14.9801 8.55351C15.0022 8.41502 15.0532 8.28274 15.1298 8.16525C15.2064 8.04776 15.3068 7.94768 15.4246 7.87153C15.5423 7.79537 15.6748 7.74484 15.8133 7.7232C15.9519 7.70157 16.0935 7.70932 16.2288 7.74596C16.3642 7.78259 16.4903 7.84729 16.5991 7.93585C16.7078 8.02441 16.7967 8.13485 16.86 8.26H16.85Z" fill="#111111"/>
</svg>
