<svg width="40" height="40" viewBox="0 0 40 40" fill="none" xmlns="http://www.w3.org/2000/svg">
<rect x="1" y="1" width="38" height="38" rx="9" stroke="#EF521F" stroke-width="2"/>
<path d="M11.36 10.6H27.86V15.76H27.02L26.06 12.43C26 12.17 25.93 11.99 25.85 11.89C25.79 11.77 25.66 11.7 25.46 11.68C25.26 11.66 24.92 11.65 24.44 11.65H21.41V28.48C21.41 29.16 21.44 29.57 21.5 29.71C21.56 29.83 21.75 29.91 22.07 29.95L23.72 30.16V31H15.5V30.16L17.15 29.95C17.47 29.91 17.66 29.83 17.72 29.71C17.78 29.57 17.81 29.16 17.81 28.48V11.65H14.78C14.32 11.65 13.98 11.66 13.76 11.68C13.56 11.7 13.43 11.77 13.37 11.89C13.31 11.99 13.24 12.17 13.16 12.43L12.2 15.76H11.36V10.6Z" fill="#EF521F"/>
</svg>
