<svg width="18" height="14" viewBox="0 0 18 14" fill="none" xmlns="http://www.w3.org/2000/svg">
<path d="M12.0696 0.74C12.0506 0.674596 12.0249 0.610978 11.9927 0.55C11.9927 0.55 11.9927 0.55 11.9927 0.49C11.9927 0.43 11.9269 0.43 11.905 0.4C11.8625 0.343109 11.8107 0.292515 11.7514 0.25L11.5868 0.14C11.524 0.107474 11.4578 0.0806779 11.3893 0.0599999H11.1698L10.9723 0H10.8955H10.687L10.4786 0.0700002H10.4127L5.17894 3H3.2917C2.41868 3 1.58143 3.31607 0.964116 3.87868C0.346803 4.44129 0 5.20435 0 6V8C0 8.79565 0.346803 9.55871 0.964116 10.1213C1.58143 10.6839 2.41868 11 3.2917 11H5.17894L10.4127 13.86H10.4786L10.687 13.93H10.8955H10.9723H11.093H11.3125C11.381 13.9093 11.4472 13.8825 11.51 13.85L11.6746 13.74C11.7339 13.6975 11.7857 13.6469 11.8282 13.59C11.8282 13.59 11.894 13.54 11.9159 13.5C11.9379 13.46 11.9159 13.5 11.9159 13.44C11.9481 13.379 11.9738 13.3154 11.9927 13.25C11.9979 13.1868 11.9979 13.1232 11.9927 13.06L12.0696 13V1C12.0696 1 12.0696 1 12.0696 0.93C12.0747 0.866753 12.0747 0.803247 12.0696 0.74ZM2.19446 8V6C2.19446 5.73478 2.31007 5.48043 2.51584 5.29289C2.72161 5.10536 3.00069 5 3.2917 5H5.56297H5.77144L5.97991 4.93H6.04575L9.87509 2.77V11.23L6.04575 9.14H5.97991L5.77144 9.07H5.56297H3.2917C3.14091 9.07034 2.99166 9.04235 2.85327 8.98777C2.71489 8.9332 2.59032 8.85321 2.48737 8.75281C2.38441 8.6524 2.30526 8.53374 2.25487 8.40421C2.20447 8.27469 2.18391 8.13709 2.19446 8Z" fill="#111111"/>
<path d="M16.2939 3.25995C16.2245 3.1348 16.127 3.02436 16.0077 2.9358C15.8883 2.84724 15.7499 2.78254 15.6014 2.74591C15.4529 2.70927 15.2975 2.70152 15.1455 2.72315C14.9935 2.74479 14.8481 2.79532 14.7189 2.87148C14.5897 2.94763 14.4795 3.04771 14.3955 3.1652C14.3115 3.28269 14.2555 3.41497 14.2313 3.55346C14.207 3.69194 14.215 3.83353 14.2546 3.96903C14.2943 4.10452 14.3648 4.2309 14.4616 4.33995C15.0317 5.13112 15.3437 6.05354 15.3613 6.99995C15.347 7.94537 15.0388 8.8677 14.4725 9.65995C14.3758 9.769 14.3053 9.89537 14.2656 10.0309C14.2259 10.1664 14.218 10.308 14.2422 10.4464C14.2665 10.5849 14.3225 10.7172 14.4065 10.8347C14.4905 10.9522 14.6007 11.0523 14.7299 11.1284C14.8591 11.2046 15.0044 11.2551 15.1565 11.2767C15.3085 11.2984 15.4638 11.2906 15.6124 11.254C15.7609 11.2174 15.8993 11.1527 16.0186 11.0641C16.1379 10.9755 16.2355 10.8651 16.3049 10.7399C17.121 9.63447 17.5569 8.33234 17.5569 6.99995C17.5569 5.66756 17.121 4.36543 16.3049 3.25995H16.2939Z" fill="#111111"/>
</svg>
